<svg xmlns="http://www.w3.org/2000/svg" viewBox="0 0 815 518" width="1000" height="700">
<g fill="#000" fill-rule="evenodd">
<path d="M 788 318 L 784 309 L 746 274 L 705 240 L 684 226 L 716 192 L 733 169 L 736 160 L 734 151 L 727 146 L 719 146 L 705 155 L 665 194 L 629 224 L 604 242 L 571 262 L 525 284 L 491 296 L 448 306 L 412 310 L 368 309 L 336 305 L 292 295 L 259 284 L 226 270 L 187 250 L 145 224 L 73 171 L 59 166 L 54 167 L 50 173 L 51 181 L 54 187 L 85 218 L 110 239 L 71 267 L 44 291 L 23 315 L 21 321 L 21 328 L 25 337 L 30 341 L 36 343 L 45 343 L 54 340 L 70 328 L 137 260 L 139 260 L 185 290 L 219 307 L 220 309 L 197 336 L 175 369 L 154 410 L 152 417 L 152 425 L 155 433 L 163 441 L 172 444 L 177 444 L 188 440 L 199 428 L 255 323 L 284 333 L 318 342 L 351 348 L 380 350 L 381 353 L 375 382 L 371 424 L 371 461 L 373 481 L 376 492 L 383 502 L 394 507 L 404 507 L 413 503 L 416 500 L 422 487 L 417 372 L 414 353 L 415 350 L 438 349 L 469 344 L 503 335 L 542 320 L 554 351 L 567 379 L 576 395 L 591 416 L 606 431 L 613 436 L 626 442 L 640 443 L 648 440 L 654 434 L 656 430 L 655 417 L 653 413 L 636 397 L 619 376 L 588 324 L 575 305 L 577 303 L 609 285 L 633 269 L 661 247 L 674 263 L 722 311 L 738 325 L 753 335 L 764 339 L 776 338 L 786 330 L 788 325 Z"/>
<path d="M 363 113 L 352 124 L 346 134 L 342 146 L 342 164 L 346 177 L 351 186 L 367 202 L 380 209 L 393 213 L 406 215 L 420 214 L 433 211 L 444 206 L 455 198 L 464 188 L 469 179 L 472 169 L 472 148 L 467 134 L 455 120 L 435 110 L 425 108 L 412 108 L 406 104 L 399 102 L 382 103 Z M 415 145 L 426 154 L 426 167 L 417 174 L 403 174 L 398 171 L 393 165 L 392 155 L 394 151 L 399 147 Z"/>
<path d="M 331 30 L 304 46 L 279 66 L 258 88 L 248 102 L 241 115 L 236 129 L 233 144 L 233 169 L 238 190 L 244 203 L 254 218 L 271 236 L 297 254 L 313 262 L 332 269 L 353 274 L 369 276 L 400 276 L 439 269 L 461 261 L 479 252 L 503 235 L 521 215 L 531 199 L 539 179 L 545 145 L 544 114 L 537 87 L 527 70 L 520 64 L 511 60 L 504 60 L 497 63 L 493 69 L 491 77 L 492 87 L 498 103 L 502 121 L 501 151 L 495 173 L 490 183 L 479 198 L 458 216 L 443 224 L 418 232 L 400 235 L 369 234 L 343 226 L 323 215 L 309 204 L 296 190 L 287 174 L 283 161 L 282 146 L 284 134 L 293 114 L 302 101 L 328 74 L 344 62 L 357 55 L 379 49 L 402 49 L 434 56 L 448 55 L 453 50 L 452 44 L 442 36 L 424 28 L 397 21 L 367 20 L 348 24 Z"/>
</g></svg>